<svg id="Layer_1" enable-background="new 0 0 512 512" viewBox="0 0 512 512" xmlns="http://www.w3.org/2000/svg"><g id="Layer_1_1_" display="none"><g id="XMLID_1_" display="inline" fill="none" stroke="#000" stroke-miterlimit="10" stroke-width=".1"><path id="XMLID_2_" d="m0 0h512v512h-512z"/><path id="XMLID_3_" d="m0 496h512"/><path id="XMLID_4_" d="m0 480h512"/><path id="XMLID_5_" d="m0 464h512"/><path id="XMLID_6_" d="m0 448h512"/><path id="XMLID_7_" d="m0 432h512"/><path id="XMLID_8_" d="m0 416h512"/><path id="XMLID_9_" d="m0 400h512"/><path id="XMLID_10_" d="m0 384h512"/><path id="XMLID_11_" d="m0 368h512"/><path id="XMLID_12_" d="m0 352h512"/><path id="XMLID_13_" d="m0 336h512"/><path id="XMLID_14_" d="m0 320h512"/><path id="XMLID_15_" d="m0 304h512"/><path id="XMLID_16_" d="m0 288h512"/><path id="XMLID_17_" d="m0 272h512"/><path id="XMLID_18_" d="m0 256h512"/><path id="XMLID_19_" d="m0 240h512"/><path id="XMLID_20_" d="m0 224h512"/><path id="XMLID_21_" d="m0 208h512"/><path id="XMLID_22_" d="m0 192h512"/><path id="XMLID_23_" d="m0 176h512"/><path id="XMLID_24_" d="m0 160h512"/><path id="XMLID_25_" d="m0 144h512"/><path id="XMLID_26_" d="m0 128h512"/><path id="XMLID_27_" d="m0 112h512"/><path id="XMLID_28_" d="m0 96h512"/><path id="XMLID_29_" d="m0 80h512"/><path id="XMLID_30_" d="m0 64h512"/><path id="XMLID_31_" d="m0 48h512"/><path id="XMLID_32_" d="m0 32h512"/><path id="XMLID_33_" d="m0 16h512"/><path id="XMLID_34_" d="m496 0v512"/><path id="XMLID_35_" d="m480 0v512"/><path id="XMLID_36_" d="m464 0v512"/><path id="XMLID_37_" d="m448 0v512"/><path id="XMLID_38_" d="m432 0v512"/><path id="XMLID_39_" d="m416 0v512"/><path id="XMLID_40_" d="m400 0v512"/><path id="XMLID_41_" d="m384 0v512"/><path id="XMLID_42_" d="m368 0v512"/><path id="XMLID_43_" d="m352 0v512"/><path id="XMLID_44_" d="m336 0v512"/><path id="XMLID_45_" d="m320 0v512"/><path id="XMLID_46_" d="m304 0v512"/><path id="XMLID_47_" d="m288 0v512"/><path id="XMLID_48_" d="m272 0v512"/><path id="XMLID_49_" d="m256 0v512"/><path id="XMLID_50_" d="m240 0v512"/><path id="XMLID_51_" d="m224 0v512"/><path id="XMLID_52_" d="m208 0v512"/><path id="XMLID_53_" d="m192 0v512"/><path id="XMLID_54_" d="m176 0v512"/><path id="XMLID_55_" d="m160 0v512"/><path id="XMLID_56_" d="m144 0v512"/><path id="XMLID_57_" d="m128 0v512"/><path id="XMLID_58_" d="m112 0v512"/><path id="XMLID_59_" d="m96 0v512"/><path id="XMLID_60_" d="m80 0v512"/><path id="XMLID_61_" d="m64 0v512"/><path id="XMLID_62_" d="m48 0v512"/><path id="XMLID_63_" d="m32 0v512"/><path id="XMLID_64_" d="m16 0v512"/></g></g><circle cx="256" cy="256" fill="#4fc1e9" r="250"/><g id="Layer_2"><g id="XMLID_67_" fill="#fff"><circle id="XMLID_1115_" cx="256" cy="190.6" r="59.6"/><path id="XMLID_1116_" d="m360.4 381h-208.8v-60.3c0-27 21.8-48.8 48.8-48.8h111.3c27 0 48.8 21.8 48.8 48.8z"/></g></g></svg>